<svg width="33" height="32" viewBox="0 0 33 32" fill="none" xmlns="http://www.w3.org/2000/svg">
<path d="M27.5013 16V24C27.5013 26.9455 25.1135 29.3333 22.168 29.3333H11.5013C8.55578 29.3333 6.16797 26.9455 6.16797 24V16" stroke="#141718" stroke-width="2.5" stroke-linejoin="round"/>
<path d="M23.1926 2.66663H10.4759C8.0528 2.66663 5.87378 4.3263 4.97385 6.85736L3.96321 9.69979C3.65728 10.5602 3.44581 11.4809 3.66895 12.3665C4.19741 14.4636 5.91191 16 7.94537 16C10.4 16 12.3898 13.7614 12.3898 11C12.3898 13.7614 14.3797 16 16.8343 16C19.2889 16 21.2787 13.7614 21.2787 11C21.2787 13.7614 23.2685 16 25.7231 16C27.7566 16 29.4711 14.4636 29.9996 12.3665C30.2227 11.4809 30.0112 10.5602 29.7053 9.69979L28.6947 6.85735C27.7947 4.3263 25.6157 2.66663 23.1926 2.66663Z" stroke="#141718" stroke-width="2.5" stroke-linejoin="round"/>
<path d="M12.834 25.3334C12.834 23.1242 14.6248 21.3334 16.834 21.3334C19.0431 21.3334 20.834 23.1242 20.834 25.3334V29.3334H12.834V25.3334Z" stroke="#141718" stroke-width="2.5" stroke-linejoin="round"/>
</svg>
